PathFileType	4	(X/Y/Z)	pose_F01_0-94.trc
DataRate	CameraRate	NumFrames	NumMarkers	Units	OrigDataRate	OrigDataStartFrame	OrigNumFrames
30	30	9	21	m	30	78	94
Frame#	Time	CHip			RHip			RKnee			RAnkle			RBigToe			RSmallToe			RHeel			LHip			LKnee			LAnkle			LBigToe			LSmallToe			LHeel			Neck			Nose			RShoulder			RElbow			RWrist			LShoulder			LElbow			LWrist			
		X1	Y1	Z1	X2	Y2	Z2	X3	Y3	Z3	X4	Y4	Z4	X5	Y5	Z5	X6	Y6	Z6	X7	Y7	Z7	X8	Y8	Z8	X9	Y9	Z9	X10	Y10	Z10	X11	Y11	Z11	X12	Y12	Z12	X13	Y13	Z13	X14	Y14	Z14	X15	Y15	Z15	X16	Y16	Z16	X17	Y17	Z17	X18	Y18	Z18	X19	Y19	Z19	X20	Y20	Z20	X21	Y21	Z21	
78	2.6	-0.2777829511989887	1.8499837507647272	-0.5858253896196637	-0.29019843702938597	1.8448874616065967	-0.518488283939143	-0.26751795016155394	1.7156157379510313	-0.38103913808870543													-0.2629663483205683	1.8559003333075603	-0.6540091839519242	-0.25447401183645063	1.7071763977528682	-0.6771164040218769													-0.2701467441957798	2.0053312935414254	-0.5665743184742102	-0.2524907796947023	2.0616701633580394	-0.5330025173101667	-0.294466388418941	1.9950605290444623	-0.479686835390726	-0.30831433410724896	1.9185089753143452	-0.46212157452075187	-0.32238695756064284	1.8506203275904671	-0.43919808088032597	-0.2452633080145628	2.015367542574627	-0.6598396583916661	-1.2558567507344383	1.8367768898354309	0.3191573741706404	-0.1944337058420552	1.8630305963052987	-0.7518501194565406
79	2.6333333333333333	-0.2767409617669774	1.8622711170643256	-0.603039440676673	-0.2879248648774468	1.8567071502263515	-0.5394677397652394	-0.26751795016155394	1.7156157379510313	-0.38103913808870543													-0.26088330229831086	1.8675669302821873	-0.6736248506078708	-0.2572419938101883	1.7114265313429315	-0.6794273953063916													-0.2705887383592482	2.0175726059670027	-0.5968622570697028	-0.25403731225460774	2.0765392671750407	-0.5585444293962557	-0.29160136170497264	2.007473014873932	-0.5060874279758649	-0.30734564034211104	1.9239704139437888	-0.4777942540057227	-0.3209842176769952	1.8575112510975353	-0.44631485522880426	-0.247674183283855	2.0291551336077847	-0.6901158703001548	-1.2471543430260306	1.8516496823484385	0.28374642737322603	-0.19542073415889422	1.8897094007344823	-0.7808643297990404
80	2.6666666666666665	-0.27668558842269775	1.8694850924406683	-0.6106616149807184	-0.2876375375199925	1.8648416509552146	-0.5462667904857976	-0.26751795016155394	1.7156157379510313	-0.38103913808870543													-0.2615334291847265	1.8725653477637394	-0.6765953746426978	-0.260009975783926	1.7156766649329949	-0.6817383865909065													-0.2738742496179076	2.0290019238215384	-0.6188841412384211	-0.25555723424581434	2.089792059074452	-0.5838321911138363	-0.2932931300943028	2.0196982496507503	-0.5224165432945508	-0.3073620769705359	1.9381958908164603	-0.4965395509462813	-0.32109526802507293	1.8709301045035924	-0.46520984675365973	-0.2508382229835	2.0368857076820026	-0.7119753651440722	-1.1971285082625367	1.8547539546268887	0.18689517055777458	-0.6222838770149628	1.8430684526308325	-0.40476313557809196
81	2.7	-0.2766302150784181	1.8766990678170112	-0.6182837892847636	-0.2873502101625382	1.872976151684078	-0.5530658412063559	-0.26474951690781384	1.7416202877032996	-0.49600959841719067													-0.2621835560711421	1.8775637652452914	-0.6795658986775248	-0.26277795775766366	1.7199267985230582	-0.6840493778754213													-0.2756407312953131	2.035681474032585	-0.6264127889542461	-0.2571756486456228	2.0990351344960336	-0.5999292381428334	-0.29620865369993243	2.0267555498143235	-0.5331808899104481	-0.30958626499363817	1.9466635541591628	-0.5133162740365307	-0.31505544448670797	1.8720541926432288	-0.4873024827628592	-0.2511287590758173	2.0424733274724653	-0.7238638737321081	-0.23442171251592195	1.9672889120339616	-0.7806074920423581	-1.0491470198710315	1.796427504527183	-0.028661941357143537
82	2.7333333333333334	-0.2765748417341385	1.883913043193354	-0.6259059635888089	-0.2870628828050839	1.881110652412941	-0.5598648919269141	-0.2650606534209252	1.7443360217426624	-0.5138448043475626													-0.2628336829575577	1.8825621827268433	-0.6825364227123519	-0.26554593973140134	1.7241769321131215	-0.6863603691599361													-0.2754849992125978	2.0395045650489356	-0.6353376757862252	-0.2598915240473253	2.10568571658473	-0.610309885989183	-0.29631608217839445	2.0321349601481646	-0.5427683980056849	-0.6311854012998255	1.9249991309155305	-0.17153245283559193	-0.3152169467125957	1.8734518058365357	-0.4859723467522061	-0.25275538384587387	2.0466711391707353	-0.7305446007812727	-0.23551262423305971	1.9660441198563072	-0.7835070034356488	-1.0636723439370748	1.79406664626029	-0.01919841033669523
83	2.7666666666666666	-0.27815076030926356	1.8856974942487001	-0.6206849144629689	-0.2885413909214865	1.8830101245458803	-0.554851084152504	-0.26794228598458764	1.7415525097148827	-0.5323715753277479													-0.26348380984397335	1.8875606002083953	-0.6855069467471789	-0.268313921705139	1.7284270657031848	-0.6886713604444509													-0.27761061065069303	2.038359472573364	-0.6333830976715517	-0.2607396353160046	2.1098955205485743	-0.614284304129106	-0.2983044892018966	2.0319748367781214	-0.540664511753304	-0.9527845376060128	1.903334707671898	0.17025136836534682	-0.31537844893848344	1.8748494190298426	-0.48464221074155295	-0.252866301925683	2.0441475196757692	-0.7303550024752499	-0.2446296959370582	1.9624770022046454	-0.7742416118661211	-1.0809849796546451	1.7851037248641364	0.001358583757335482
84	2.8	-0.27825558963687247	1.8838832556208056	-0.62032360120342	-0.2888041454986417	1.8797726093932334	-0.5542961858174246	-0.27082391854825005	1.738768997687103	-0.5508983463079332													-0.263579566690031	1.8858850493072905	-0.6852029687077537	-0.2710819036788767	1.7326771992932481	-0.6909823517289657													-0.27975379365193986	2.038361155874385	-0.6311084006526988	-0.26279006418260864	2.10993809818305	-0.6121241317102988	-0.30037056141777985	2.0332002687843094	-0.538933723706809	-1.2743836739122	1.8816702844282658	0.5120351895662856	-0.3155399511643711	1.8762470322231493	-0.4833120747308998	-0.25726386456045625	2.044227358736544	-0.7257577328851847	-0.25327004222243876	1.9598192908609935	-0.7534488280257559	-0.6681669038621898	1.828987172648679	-0.3714922566760936
85	2.8333333333333335	-0.27948675931458156	1.8809266073832323	-0.6147201735157318	-0.2906739064181205	1.8773483730935758	-0.5519335131820543	-0.27370555111191247	1.7359854856593233	-0.5694251172881185													-0.26583892119324787	1.882639224784478	-0.6825825460879457	-0.2667711755531843	1.7344472938347826	-0.6870257440979924													-0.2799610747072487	2.0364423670388	-0.6224923808213685	-0.2638898589586993	2.1084640718063534	-0.6065072840411714	-0.30138016526433414	2.0327626566435897	-0.5336287417849411	-1.5959828102183875	1.8600058611846335	0.8538190107672243	-0.31570145339025885	1.8776446454164561	-0.4819819387202467	-0.25768923193629084	2.042570053531922	-0.7171291852773942	-0.2573895376938727	1.9555028342438794	-0.7369087393538067	-0.2553488280697346	1.8728706204332217	-0.7443430971095227
86	2.8666666666666667	-0.28112401398885795	1.8886023811447625	-0.613296479406697	-0.29235759756432134	1.8846992505315032	-0.5506194322890436	-0.2765871836755749	1.7332019736315436	-0.5879518882683038													-0.26640984626424696	1.890906904635705	-0.6782283874068908	-0.2624604474274919	1.736217388376317	-0.6830691364670192													-0.2795983178379598	2.0424978503195983	-0.622514549372634	-0.2628578667069024	2.111963787532933	-0.6036334826417961	-0.3000523479306357	2.0383770959020064	-0.5308013558884034	-0.31146420678129805	1.9498233345471687	-0.5033932128200611	-0.319882072837836	1.8774382806098622	-0.4640818479820056	-0.257366555598715	2.0483391266345916	-0.7172199465735714	-0.25868713131534876	1.9633127954236045	-0.7327316607959076	-0.2529140305640991	1.8815885380374857	-0.7475594049545765
